HIERARCHY
ROOT Hips
{
	OFFSET 0.000000 0.000000 0.000000
	CHANNELS 6 Xposition Yposition Zposition Zrotation Yrotation Xrotation 
	JOINT LHipJoint
	{
		OFFSET 0.000000 0.000000 0.000000
		CHANNELS 3 Zrotation Yrotation Xrotation
		JOINT LeftUpLeg
		{
			OFFSET 1.363060 -1.794630 0.839290
			CHANNELS 3 Zrotation Yrotation Xrotation
			JOINT LeftLeg
			{
				OFFSET 2.448110 -6.726130 0.000000
				CHANNELS 3 Zrotation Yrotation Xrotation
				JOINT LeftFoot
				{
					OFFSET 2.562200 -7.039590 0.000000
					CHANNELS 3 Zrotation Yrotation Xrotation
					JOINT LeftToeBase
					{
						OFFSET 0.157640 -0.433110 2.322550
						CHANNELS 3 Zrotation Yrotation Xrotation
						End Site
						{
							OFFSET 0.000000 0.000000 0.000000
						}
					}
				}
			}
		}
	}
	JOINT RHipJoint
	{
		OFFSET 0.000000 0.000000 0.000000
		CHANNELS 3 Zrotation Yrotation Xrotation
		JOINT RightUpLeg
		{
			OFFSET -1.305520 -1.794630 0.839290
			CHANNELS 3 Zrotation Yrotation Xrotation
			JOINT RightLeg
			{
				OFFSET -2.542530 -6.985550 0.000000
				CHANNELS 3 Zrotation Yrotation Xrotation
				JOINT RightFoot
				{
					OFFSET -2.568260 -7.056230 0.000000
					CHANNELS 3 Zrotation Yrotation Xrotation
					JOINT RightToeBase
					{
						OFFSET -0.164730 -0.452590 2.363150
						CHANNELS 3 Zrotation Yrotation Xrotation
						End Site
						{
							OFFSET 0.000000 0.000000 0.000000
						}
					}
				}
			}
		}
	}
	JOINT LowerBack
	{
		OFFSET 0.000000 0.000000 0.000000
		CHANNELS 3 Zrotation Yrotation Xrotation
		JOINT Spine
		{
			OFFSET 0.028270 2.035590 -0.193380
			CHANNELS 3 Zrotation Yrotation Xrotation
			JOINT Spine1
			{
				OFFSET 0.056720 2.048850 -0.042750
				CHANNELS 3 Zrotation Yrotation Xrotation
				JOINT Neck
				{
					OFFSET 0.000000 0.000000 0.000000
					CHANNELS 3 Zrotation Yrotation Xrotation
					JOINT Neck1
					{
						OFFSET -0.054170 1.746240 0.172020
						CHANNELS 3 Zrotation Yrotation Xrotation
						JOINT Head
						{
							OFFSET 0.104070 1.761360 -0.123970
							CHANNELS 3 Zrotation Yrotation Xrotation
							End Site
							{
								OFFSET 0.000000 0.000000 0.000000
							}
						}
					}
				}
				JOINT LeftShoulder
				{
					OFFSET 0.000000 0.000000 0.000000
					CHANNELS 3 Zrotation Yrotation Xrotation
					JOINT LeftArm
					{
						OFFSET 3.362410 1.200890 -0.311210
						CHANNELS 3 Zrotation Yrotation Xrotation
						JOINT LeftForeArm
						{
							OFFSET 4.983000 -0.000000 -0.000000
							CHANNELS 3 Zrotation Yrotation Xrotation
							JOINT LeftHand
							{
								OFFSET 3.483560 -0.000000 -0.000000
								CHANNELS 3 Zrotation Yrotation Xrotation
								JOINT LeftFingerBase
								{
									OFFSET 0.000000 0.000000 0.000000
									CHANNELS 3 Zrotation Yrotation Xrotation
									JOINT LeftHandIndex1
									{
										OFFSET 0.715260 -0.000000 -0.000000
										CHANNELS 3 Zrotation Yrotation Xrotation
										End Site
										{
											OFFSET 0.000000 0.000000 0.000000
										}
									}
								}
								JOINT LThumb
								{
									OFFSET 0.000000 0.000000 0.000000
									CHANNELS 3 Zrotation Yrotation Xrotation
									End Site
									{
										OFFSET 0.000000 0.000000 0.000000
									}
								}
							}
						}
					}
				}
				JOINT RightShoulder
				{
					OFFSET 0.000000 0.000000 0.000000
					CHANNELS 3 Zrotation Yrotation Xrotation
					JOINT RightArm
					{
						OFFSET -3.136600 1.374050 -0.404650
						CHANNELS 3 Zrotation Yrotation Xrotation
						JOINT RightForeArm
						{
							OFFSET -5.241900 -0.000000 -0.000000
							CHANNELS 3 Zrotation Yrotation Xrotation
							JOINT RightHand
							{
								OFFSET -3.444170 -0.000000 -0.000000
								CHANNELS 3 Zrotation Yrotation Xrotation
								JOINT RightFingerBase
								{
									OFFSET 0.000000 0.000000 0.000000
									CHANNELS 3 Zrotation Yrotation Xrotation
									JOINT RightHandIndex1
									{
										OFFSET -0.622530 -0.000000 -0.000000
										CHANNELS 3 Zrotation Yrotation Xrotation
										End Site
										{
											OFFSET 0.000000 0.000000 0.000000
										}
									}
								}
								JOINT RThumb
								{
									OFFSET 0.000000 0.000000 0.000000
									CHANNELS 3 Zrotation Yrotation Xrotation
									End Site
									{
										OFFSET 0.000000 0.000000 0.000000
									}
								}
							}
						}
					}
				}
			}
		}
	}
}
MOTION
Frames: 9
Frame Time: 0.008333
4.684207 17.328019 0.271138 -172.617888 -67.186104 -160.838866 -10.758550 0.089830 -3.321752 -11.100715 27.075903 -27.152566 -3.338297 -1.516778 -6.419539 1.847152 13.911734 5.232844 3.492900 -0.000000 -39.767800 8.855465 -0.195393 4.589405 3.146465 11.481494 -28.839659 3.262769 1.840414 -6.041843 1.199861 4.994399 12.351238 0.893300 -0.000000 -59.149901 -0.742767 -2.270035 -0.383881 -0.850012 -2.247492 -2.701505 -7.575324 -2.018179 0.552063 11.104834 -14.976205 -6.157208 -3.218291 -0.251787 0.273347 0.000000 0.000000 0.000000 11.423677 3.402231 -0.418064 -64.949994 -1.350477 28.454671 -178.984327 -63.240710 -179.985228 -0.809509 6.885688 -0.051231 0.084349 0.251513 -0.000000 0.000000 0.000000 0.000000 0.000000 0.000000 0.000000 8.876049 -11.356255 0.302877 80.196887 18.915029 46.687790 178.346322 71.532553 179.954227 -8.343477 7.815134 -0.650339 0.387475 -0.749749 0.000000 0.000000 0.000000 0.000000 0.000000 0.000000 0.000000 
4.673271 17.328701 0.269915 -172.704528 -66.640379 -160.948083 -10.807322 0.171261 -3.307219 -11.123773 27.481740 -26.995396 -3.350095 -1.498586 -6.402062 1.853943 13.942207 5.176748 3.475701 0.000000 -39.753500 8.821098 -0.209368 4.690395 3.099224 11.689502 -28.734373 3.289901 1.847611 -5.974682 1.239720 5.227551 12.387081 0.970100 0.000000 -59.218600 -0.399797 -2.369352 -0.535378 -0.821627 -2.383145 -2.681394 -7.770803 -2.142137 0.736482 11.056945 -15.263123 -6.258053 -3.203926 -0.249877 0.252447 0.000000 0.000000 0.000000 11.923875 3.187067 -0.286505 -62.275159 -2.557658 29.696327 -178.908797 -63.430659 -179.981252 -1.500284 7.463365 -0.100580 0.095294 0.220898 -0.000000 0.000000 0.000000 0.000000 0.000000 0.000000 0.000000 8.995514 -11.726721 0.341653 80.051625 19.351095 47.177753 178.300063 71.463812 179.954628 -8.352227 7.718159 -0.643910 0.394494 -0.748459 0.000000 0.000000 0.000000 0.000000 0.000000 0.000000 0.000000 
4.663059 17.329724 0.270814 -172.786428 -66.144429 -161.089558 -10.860758 0.253777 -3.283419 -11.129942 27.861120 -26.813234 -3.359166 -1.481783 -6.396136 1.858108 13.960880 5.130331 3.458000 -0.000000 -39.732800 8.786338 -0.227264 4.784207 3.068246 11.855528 -28.599945 3.317958 1.854178 -5.907964 1.277583 5.449169 12.423736 1.043099 0.000000 -59.307600 -0.052167 -2.461402 -0.691947 -0.797076 -2.512997 -2.654118 -7.976493 -2.258839 0.947122 11.037848 -15.560412 -6.355259 -3.183034 -0.247456 0.232290 0.000000 0.000000 0.000000 12.488560 2.972994 -0.134991 -59.375398 -4.077281 30.923322 -178.840602 -63.686938 -179.977430 -2.253912 7.833275 -0.157421 0.108074 0.197279 0.000000 0.000000 0.000000 0.000000 0.000000 0.000000 0.000000 9.147477 -12.126653 0.376552 79.851293 19.810145 47.608967 178.259540 71.381721 179.954840 -8.367260 7.612938 -0.637194 0.400819 -0.746503 0.000000 0.000000 0.000000 0.000000 0.000000 0.000000 0.000000 
4.653626 17.331186 0.273895 -172.861915 -65.700683 -161.265052 -10.917794 0.336323 -3.251216 -11.114621 28.208947 -26.603206 -3.364612 -1.466107 -6.397374 1.860516 13.973539 5.093069 3.441000 0.000000 -39.707500 8.752601 -0.248659 4.867950 3.057552 11.972205 -28.432052 3.347156 1.859912 -5.845875 1.314002 5.664937 12.464860 1.114800 0.000000 -59.422300 0.291822 -2.545328 -0.849970 -0.777996 -2.635504 -2.620320 -8.190980 -2.367052 1.176715 11.054598 -15.863472 -6.440562 -3.155921 -0.244662 0.215178 0.000000 0.000000 0.000000 13.100202 2.739761 0.032721 -56.222400 -5.877072 32.078658 -178.793583 -63.983384 -179.974183 -2.979390 7.931245 -0.210036 0.120731 0.183104 0.000000 0.000000 0.000000 0.000000 0.000000 0.000000 0.000000 9.337227 -12.553192 0.410283 79.588424 20.288528 47.974581 178.224246 71.282915 179.954921 -8.383929 7.504819 -0.630294 0.406298 -0.744034 0.000000 0.000000 0.000000 0.000000 0.000000 0.000000 0.000000 
4.645084 17.333141 0.279223 -172.929360 -65.309351 -161.476356 -10.977261 0.418022 -3.211993 -11.074613 28.521941 -26.363285 -3.365637 -1.451155 -6.402464 1.862109 13.986196 5.065016 3.426600 0.000000 -39.679100 8.721314 -0.272599 4.938558 3.070382 12.033016 -28.225897 3.377748 1.864854 -5.794144 1.349502 5.880028 12.515091 1.187400 -0.000000 -59.567700 0.624188 -2.622135 -1.004868 -0.765708 -2.750947 -2.581510 -8.412722 -2.467680 1.414206 11.114335 -16.165513 -6.504462 -3.122793 -0.241657 0.203857 0.000000 0.000000 0.000000 13.737298 2.459493 0.211292 -52.782322 -7.889029 33.114045 -178.782708 -64.294300 -179.971829 -3.581428 7.744269 -0.245707 0.131404 0.178907 0.000000 0.000000 0.000000 0.000000 0.000000 0.000000 0.000000 9.568427 -12.999355 0.446295 79.255756 20.780185 48.269167 178.193360 71.163213 179.954923 -8.399292 7.400862 -0.623510 0.410875 -0.741291 0.000000 0.000000 0.000000 0.000000 0.000000 0.000000 0.000000 
4.637279 17.335629 0.286874 -172.985242 -64.969381 -161.723893 -11.037960 0.498306 -3.167556 -11.008978 28.798896 -26.093044 -3.361833 -1.436576 -6.409636 1.863644 14.003492 5.046407 3.415700 0.000000 -39.650800 8.693874 -0.297854 4.993314 3.108593 12.033131 -27.978747 3.409994 1.869252 -5.758901 1.384591 6.099217 12.579650 1.263199 0.000000 -59.747800 0.936158 -2.694723 -1.151926 -0.761139 -2.861373 -2.539843 -8.638548 -2.563765 1.647042 11.224194 -16.459321 -6.538534 -3.083546 -0.238580 0.200832 0.000000 0.000000 0.000000 14.381521 2.101590 0.394130 -49.030352 -10.011038 33.998233 -178.820824 -64.603712 -179.970503 -3.991773 7.307892 -0.257534 0.139133 0.183369 0.000000 0.000000 0.000000 0.000000 0.000000 0.000000 0.000000 9.843677 -13.455893 0.487987 78.844785 21.279519 48.489586 178.165796 71.018407 179.954896 -8.411812 7.307365 -0.617142 0.414592 -0.738480 0.000000 0.000000 0.000000 0.000000 0.000000 0.000000 0.000000 
4.630190 17.338715 0.296973 -173.028740 -64.677188 -162.006201 -11.098446 0.576759 -3.120384 -10.919427 29.041243 -25.794226 -3.353178 -1.421946 -6.418835 1.865641 14.028376 5.038439 3.409500 0.000001 -39.625800 8.671569 -0.322692 5.029806 3.172459 11.970332 -27.689659 3.444006 1.873450 -5.745858 1.419643 6.326000 12.663357 1.343900 0.000000 -59.964300 1.218960 -2.767756 -1.286032 -0.764267 -2.970457 -2.497617 -8.861913 -2.660278 1.863399 11.389428 -16.737331 -6.537672 -3.037683 -0.235499 0.207712 0.000000 0.000000 0.000000 15.025964 1.641326 0.573916 -44.969336 -12.121491 34.726370 -178.914881 -64.904632 -179.970174 -4.190687 6.690549 -0.246530 0.144280 0.193830 0.000000 0.000000 0.000000 0.000000 0.000000 0.000000 0.000000 10.161902 -13.911567 0.537429 78.347452 21.782492 48.635453 178.140637 70.844348 179.954870 -8.421967 7.229475 -0.611888 0.417565 -0.735763 0.000000 0.000000 0.000000 0.000000 0.000000 0.000000 0.000000 
4.623350 17.342391 0.309566 -173.054361 -64.427153 -162.320193 -11.157608 0.653374 -3.072951 -10.809956 29.252613 -25.470313 -3.340131 -1.407156 -6.432391 1.868354 14.061889 5.041785 3.408400 -0.000000 -39.607600 8.655439 -0.345607 5.046579 3.260318 11.845201 -27.360894 3.479885 1.877904 -5.759190 1.454964 6.563163 12.770487 1.431100 0.000001 -60.217800 1.464608 -2.846781 -1.402970 -0.774088 -3.082714 -2.456754 -9.073213 -2.763172 2.055514 11.613220 -16.993007 -6.502691 -2.983884 -0.232332 0.224382 0.000000 0.000000 0.000000 15.674584 1.069521 0.745041 -40.636920 -14.103168 35.325351 -179.062898 -65.214572 -179.970638 -4.217702 5.975781 -0.220614 0.148458 0.206812 0.000000 0.000000 0.000000 0.000000 0.000000 0.000000 0.000000 10.519415 -14.355652 0.594205 77.755899 22.287340 48.709113 178.117911 70.640222 179.954855 -8.432517 7.170490 -0.608048 0.419935 -0.733143 0.000000 0.000000 0.000000 0.000000 0.000000 0.000000 0.000000 
4.616614 17.346651 0.324796 -173.061391 -64.211471 -162.661877 -11.214190 0.728155 -3.028473 -10.686519 29.439772 -25.125908 -3.323542 -1.391966 -6.453144 1.871680 14.102702 5.057421 3.412100 0.000000 -39.599700 8.646234 -0.364805 5.042781 3.368869 11.661468 -26.997539 3.517441 1.882839 -5.800442 1.490643 6.811903 12.903838 1.525600 -0.000000 -60.506199 1.666919 -2.937467 -1.498279 -0.788452 -3.202767 -2.417932 -9.260030 -2.878316 2.221611 11.894511 -17.221388 -6.441541 -2.920102 -0.228831 0.248657 0.000000 0.000000 0.000000 16.343054 0.400752 0.905676 -36.111054 -15.871458 35.849622 -179.252455 -65.569155 -179.971462 -4.173330 5.245321 -0.190718 0.154507 0.218609 0.000000 0.000000 0.000000 0.000000 0.000000 0.000000 0.000000 10.907531 -14.779327 0.654333 77.066941 22.797248 48.715829 178.098622 70.406222 179.954840 -8.447265 7.131141 -0.606025 0.421800 -0.730496 0.000000 0.000000 0.000000 0.000000 0.000000 0.000000 0.000000 
